<svg id="visual" viewBox="0 0 900 600" width="900" height="600" xmlns="http://www.w3.org/2000/svg" xmlns:xlink="http://www.w3.org/1999/xlink" version="1.1"><rect x="0" y="0" width="900" height="600" fill="#833833"></rect><path d="M0 260L129 334L257 311L386 289L514 210L643 250L771 299L900 322L900 601L771 601L643 601L514 601L386 601L257 601L129 601L0 601Z" fill="#232121"></path><path d="M0 283L129 276L257 383L386 375L514 343L643 342L771 296L900 347L900 601L771 601L643 601L514 601L386 601L257 601L129 601L0 601Z" fill="#3b2727"></path><path d="M0 429L129 344L257 450L386 423L514 457L643 350L771 369L900 405L900 601L771 601L643 601L514 601L386 601L257 601L129 601L0 601Z" fill="#532d2c"></path><path d="M0 480L129 498L257 461L386 467L514 490L643 429L771 505L900 436L900 601L771 601L643 601L514 601L386 601L257 601L129 601L0 601Z" fill="#6b3330"></path><path d="M0 498L129 498L257 490L386 537L514 552L643 509L771 529L900 508L900 601L771 601L643 601L514 601L386 601L257 601L129 601L0 601Z" fill="#833833"></path></svg>