<svg id="visual" viewBox="0 0 1920 1080" width="1920" height="1080" xmlns="http://www.w3.org/2000/svg" xmlns:xlink="http://www.w3.org/1999/xlink" version="1.1"><rect x="0" y="0" width="1920" height="1080" fill="#3e0e0e"></rect><path d="M0 528L240 407L480 526L720 398L960 544L1200 425L1440 415L1680 365L1920 464L1920 1081L1680 1081L1440 1081L1200 1081L960 1081L720 1081L480 1081L240 1081L0 1081Z" fill="#833833"></path><path d="M0 520L240 585L480 632L720 491L960 607L1200 535L1440 488L1680 601L1920 582L1920 1081L1680 1081L1440 1081L1200 1081L960 1081L720 1081L480 1081L240 1081L0 1081Z" fill="#703431"></path><path d="M0 625L240 615L480 670L720 633L960 736L1200 633L1440 652L1680 680L1920 582L1920 1081L1680 1081L1440 1081L1200 1081L960 1081L720 1081L480 1081L240 1081L0 1081Z" fill="#5d2f2e"></path><path d="M0 826L240 825L480 798L720 695L960 762L1200 787L1440 799L1680 744L1920 693L1920 1081L1680 1081L1440 1081L1200 1081L960 1081L720 1081L480 1081L240 1081L0 1081Z" fill="#492b2a"></path><path d="M0 897L240 901L480 894L720 824L960 883L1200 911L1440 863L1680 824L1920 810L1920 1081L1680 1081L1440 1081L1200 1081L960 1081L720 1081L480 1081L240 1081L0 1081Z" fill="#362626"></path><path d="M0 967L240 921L480 940L720 941L960 984L1200 913L1440 981L1680 991L1920 981L1920 1081L1680 1081L1440 1081L1200 1081L960 1081L720 1081L480 1081L240 1081L0 1081Z" fill="#232121"></path></svg>