<svg id="visual" viewBox="0 0 1920 1080" width="1920" height="1080" xmlns="http://www.w3.org/2000/svg" xmlns:xlink="http://www.w3.org/1999/xlink" version="1.1"><g stroke-width="1" stroke-linejoin="bevel"><path d="M880.7 487.9L1066.3 436.9L895.7 343.6Z" fill="#384794" stroke="#384794"></path><path d="M1066.3 436.9L1036.3 274.6L895.7 343.6Z" fill="#384794" stroke="#384794"></path><path d="M880.7 487.9L1046.3 632.1L1066.3 436.9Z" fill="#294287" stroke="#294287"></path><path d="M719.2 596.1L841.7 650.1L880.7 487.9Z" fill="#002b50" stroke="#002b50"></path><path d="M880.7 487.9L841.7 650.1L1046.3 632.1Z" fill="#002b50" stroke="#002b50"></path><path d="M895.7 343.6L704.2 444.9L880.7 487.9Z" fill="#294287" stroke="#294287"></path><path d="M1218.8 590.1L1224.8 456.9L1066.3 436.9Z" fill="#002543" stroke="#002543"></path><path d="M1066.3 436.9L1253.8 325.6L1036.3 274.6Z" fill="#001e35" stroke="#001e35"></path><path d="M1036.3 274.6L843.7 170.3L895.7 343.6Z" fill="#1b3d79" stroke="#1b3d79"></path><path d="M895.7 343.6L678.2 285.6L704.2 444.9Z" fill="#002b50" stroke="#002b50"></path><path d="M1208.8 177.3L1014.3 144.3L1036.3 274.6Z" fill="#0e376c" stroke="#0e376c"></path><path d="M1036.3 274.6L1014.3 144.3L843.7 170.3Z" fill="#002543" stroke="#002543"></path><path d="M704.2 444.9L719.2 596.1L880.7 487.9Z" fill="#002543" stroke="#002543"></path><path d="M1046.3 632.1L1218.8 590.1L1066.3 436.9Z" fill="#294287" stroke="#294287"></path><path d="M1371.4 450.9L1253.8 325.6L1224.8 456.9Z" fill="#484ca1" stroke="#484ca1"></path><path d="M1224.8 456.9L1253.8 325.6L1066.3 436.9Z" fill="#021828" stroke="#021828"></path><path d="M843.7 170.3L678.2 285.6L895.7 343.6Z" fill="#002b50" stroke="#002b50"></path><path d="M704.2 444.9L524.6 597.1L719.2 596.1Z" fill="#00101c" stroke="#00101c"></path><path d="M869.7 763.4L1009.3 759.4L841.7 650.1Z" fill="#00101c" stroke="#00101c"></path><path d="M841.7 650.1L1009.3 759.4L1046.3 632.1Z" fill="#001e35" stroke="#001e35"></path><path d="M1046.3 632.1L1183.8 790.4L1218.8 590.1Z" fill="#03315e" stroke="#03315e"></path><path d="M1253.8 325.6L1208.8 177.3L1036.3 274.6Z" fill="#00101c" stroke="#00101c"></path><path d="M695.2 763.4L869.7 763.4L841.7 650.1Z" fill="#1b3d79" stroke="#1b3d79"></path><path d="M1218.8 590.1L1371.4 450.9L1224.8 456.9Z" fill="#03315e" stroke="#03315e"></path><path d="M1253.8 325.6L1373.4 310.6L1208.8 177.3Z" fill="#384794" stroke="#384794"></path><path d="M734.2 0L677.2 127.3L843.7 170.3Z" fill="#00101c" stroke="#00101c"></path><path d="M843.7 170.3L677.2 127.3L678.2 285.6Z" fill="#0e376c" stroke="#0e376c"></path><path d="M1371.4 450.9L1373.4 310.6L1253.8 325.6Z" fill="#001e35" stroke="#001e35"></path><path d="M1040.3 939.7L1183.8 790.4L1009.3 759.4Z" fill="#484ca1" stroke="#484ca1"></path><path d="M1009.3 759.4L1183.8 790.4L1046.3 632.1Z" fill="#002b50" stroke="#002b50"></path><path d="M1218.8 590.1L1377.4 615.1L1371.4 450.9Z" fill="#00101c" stroke="#00101c"></path><path d="M538.6 342.6L704.2 444.9L678.2 285.6Z" fill="#021828" stroke="#021828"></path><path d="M538.6 342.6L534.6 448.9L704.2 444.9Z" fill="#1b3d79" stroke="#1b3d79"></path><path d="M719.2 596.1L695.2 763.4L841.7 650.1Z" fill="#021828" stroke="#021828"></path><path d="M488.6 189.3L538.6 342.6L678.2 285.6Z" fill="#1b3d79" stroke="#1b3d79"></path><path d="M524.6 597.1L695.2 763.4L719.2 596.1Z" fill="#00101c" stroke="#00101c"></path><path d="M869.7 763.4L1040.3 939.7L1009.3 759.4Z" fill="#002b50" stroke="#002b50"></path><path d="M1208.8 177.3L1059.3 0L1014.3 144.3Z" fill="#03315e" stroke="#03315e"></path><path d="M1014.3 144.3L854.7 0L843.7 170.3Z" fill="#294287" stroke="#294287"></path><path d="M1241.8 0L1059.3 0L1208.8 177.3Z" fill="#03315e" stroke="#03315e"></path><path d="M1059.3 0L854.7 0L1014.3 144.3Z" fill="#384794" stroke="#384794"></path><path d="M1366.4 760.4L1377.4 615.1L1218.8 590.1Z" fill="#1b3d79" stroke="#1b3d79"></path><path d="M1552.9 311.6L1421.4 189.3L1373.4 310.6Z" fill="#484ca1" stroke="#484ca1"></path><path d="M368.1 596.1L524.6 597.1L534.6 448.9Z" fill="#294287" stroke="#294287"></path><path d="M534.6 448.9L524.6 597.1L704.2 444.9Z" fill="#021828" stroke="#021828"></path><path d="M854.7 0L734.2 0L843.7 170.3Z" fill="#294287" stroke="#294287"></path><path d="M677.2 127.3L488.6 189.3L678.2 285.6Z" fill="#1b3d79" stroke="#1b3d79"></path><path d="M1394.4 0L1241.8 0L1208.8 177.3Z" fill="#002543" stroke="#002543"></path><path d="M1552.9 311.6L1373.4 310.6L1371.4 450.9Z" fill="#002543" stroke="#002543"></path><path d="M1373.4 310.6L1421.4 189.3L1208.8 177.3Z" fill="#002b50" stroke="#002b50"></path><path d="M836.7 941.7L1040.3 939.7L869.7 763.4Z" fill="#002b50" stroke="#002b50"></path><path d="M1183.8 790.4L1366.4 760.4L1218.8 590.1Z" fill="#002543" stroke="#002543"></path><path d="M1233.8 954.7L1366.4 760.4L1183.8 790.4Z" fill="#294287" stroke="#294287"></path><path d="M1575.9 490.9L1552.9 311.6L1371.4 450.9Z" fill="#002543" stroke="#002543"></path><path d="M495.6 0L488.6 189.3L677.2 127.3Z" fill="#002543" stroke="#002543"></path><path d="M538.6 342.6L375.1 297.6L534.6 448.9Z" fill="#002b50" stroke="#002b50"></path><path d="M720.2 898.7L836.7 941.7L869.7 763.4Z" fill="#00101c" stroke="#00101c"></path><path d="M720.2 898.7L869.7 763.4L695.2 763.4Z" fill="#021828" stroke="#021828"></path><path d="M552.6 956.7L720.2 898.7L695.2 763.4Z" fill="#002b50" stroke="#002b50"></path><path d="M524.6 597.1L508.6 768.4L695.2 763.4Z" fill="#002543" stroke="#002543"></path><path d="M382.1 737.4L508.6 768.4L524.6 597.1Z" fill="#021828" stroke="#021828"></path><path d="M1040.3 939.7L1233.8 954.7L1183.8 790.4Z" fill="#1b3d79" stroke="#1b3d79"></path><path d="M1203.8 1080L1233.8 954.7L1040.3 939.7Z" fill="#002543" stroke="#002543"></path><path d="M1575.9 490.9L1371.4 450.9L1377.4 615.1Z" fill="#294287" stroke="#294287"></path><path d="M1421.4 189.3L1394.4 0L1208.8 177.3Z" fill="#00101c" stroke="#00101c"></path><path d="M488.6 189.3L375.1 297.6L538.6 342.6Z" fill="#1b3d79" stroke="#1b3d79"></path><path d="M1535.9 189.3L1394.4 0L1421.4 189.3Z" fill="#00101c" stroke="#00101c"></path><path d="M1550.9 620.1L1377.4 615.1L1366.4 760.4Z" fill="#021828" stroke="#021828"></path><path d="M1550.9 620.1L1575.9 490.9L1377.4 615.1Z" fill="#002b50" stroke="#002b50"></path><path d="M1552.9 311.6L1535.9 189.3L1421.4 189.3Z" fill="#001e35" stroke="#001e35"></path><path d="M316.1 474.9L368.1 596.1L534.6 448.9Z" fill="#002b50" stroke="#002b50"></path><path d="M1579.9 740.4L1550.9 620.1L1366.4 760.4Z" fill="#294287" stroke="#294287"></path><path d="M734.2 0L495.6 0L677.2 127.3Z" fill="#002543" stroke="#002543"></path><path d="M488.6 189.3L350.1 189.3L375.1 297.6Z" fill="#021828" stroke="#021828"></path><path d="M375.1 297.6L316.1 474.9L534.6 448.9Z" fill="#294287" stroke="#294287"></path><path d="M365.1 0L350.1 189.3L488.6 189.3Z" fill="#294287" stroke="#294287"></path><path d="M375.1 297.6L194.5 280.6L316.1 474.9Z" fill="#384794" stroke="#384794"></path><path d="M710.2 1080L897.7 1080L836.7 941.7Z" fill="#1b3d79" stroke="#1b3d79"></path><path d="M836.7 941.7L897.7 1080L1040.3 939.7Z" fill="#002543" stroke="#002543"></path><path d="M710.2 1080L836.7 941.7L720.2 898.7Z" fill="#001e35" stroke="#001e35"></path><path d="M177.5 735.4L382.1 737.4L368.1 596.1Z" fill="#021828" stroke="#021828"></path><path d="M368.1 596.1L382.1 737.4L524.6 597.1Z" fill="#021828" stroke="#021828"></path><path d="M508.6 768.4L552.6 956.7L695.2 763.4Z" fill="#484ca1" stroke="#484ca1"></path><path d="M897.7 1080L1053.3 1080L1040.3 939.7Z" fill="#002543" stroke="#002543"></path><path d="M372.1 923.7L552.6 956.7L508.6 768.4Z" fill="#001e35" stroke="#001e35"></path><path d="M1573.9 915.7L1579.9 740.4L1366.4 760.4Z" fill="#002b50" stroke="#002b50"></path><path d="M1761.5 653.1L1712.5 448.9L1575.9 490.9Z" fill="#294287" stroke="#294287"></path><path d="M1403.4 962.7L1366.4 760.4L1233.8 954.7Z" fill="#384794" stroke="#384794"></path><path d="M1367.4 1080L1403.4 962.7L1233.8 954.7Z" fill="#03315e" stroke="#03315e"></path><path d="M1053.3 1080L1203.8 1080L1040.3 939.7Z" fill="#1b3d79" stroke="#1b3d79"></path><path d="M552.6 956.7L710.2 1080L720.2 898.7Z" fill="#002b50" stroke="#002b50"></path><path d="M495.6 0L365.1 0L488.6 189.3Z" fill="#002543" stroke="#002543"></path><path d="M350.1 189.3L194.5 280.6L375.1 297.6Z" fill="#0e376c" stroke="#0e376c"></path><path d="M1761.5 653.1L1575.9 490.9L1550.9 620.1Z" fill="#0e376c" stroke="#0e376c"></path><path d="M1575.9 490.9L1712.5 448.9L1552.9 311.6Z" fill="#0e376c" stroke="#0e376c"></path><path d="M1552.9 311.6L1707.5 272.6L1535.9 189.3Z" fill="#00101c" stroke="#00101c"></path><path d="M1712.5 448.9L1707.5 272.6L1552.9 311.6Z" fill="#001e35" stroke="#001e35"></path><path d="M1535.9 189.3L1599.9 0L1394.4 0Z" fill="#002543" stroke="#002543"></path><path d="M1775.5 151.3L1599.9 0L1535.9 189.3Z" fill="#03315e" stroke="#03315e"></path><path d="M1203.8 1080L1367.4 1080L1233.8 954.7Z" fill="#384794" stroke="#384794"></path><path d="M1403.4 962.7L1573.9 915.7L1366.4 760.4Z" fill="#294287" stroke="#294287"></path><path d="M382.1 737.4L372.1 923.7L508.6 768.4Z" fill="#002543" stroke="#002543"></path><path d="M552.6 956.7L518.6 1080L710.2 1080Z" fill="#1b3d79" stroke="#1b3d79"></path><path d="M177.5 735.4L372.1 923.7L382.1 737.4Z" fill="#03315e" stroke="#03315e"></path><path d="M163.5 162.3L194.5 280.6L350.1 189.3Z" fill="#294287" stroke="#294287"></path><path d="M316.1 474.9L135.5 643.1L368.1 596.1Z" fill="#0e376c" stroke="#0e376c"></path><path d="M1538.9 1080L1573.9 915.7L1403.4 962.7Z" fill="#0e376c" stroke="#0e376c"></path><path d="M1579.9 740.4L1761.5 653.1L1550.9 620.1Z" fill="#00101c" stroke="#00101c"></path><path d="M194.5 280.6L172.5 461.9L316.1 474.9Z" fill="#384794" stroke="#384794"></path><path d="M372.1 923.7L518.6 1080L552.6 956.7Z" fill="#1b3d79" stroke="#1b3d79"></path><path d="M1771.5 792.4L1761.5 653.1L1579.9 740.4Z" fill="#002543" stroke="#002543"></path><path d="M1920 314.6L1775.5 151.3L1707.5 272.6Z" fill="#294287" stroke="#294287"></path><path d="M183.5 0L163.5 162.3L350.1 189.3Z" fill="#384794" stroke="#384794"></path><path d="M0 321.6L0 481.9L172.5 461.9Z" fill="#384794" stroke="#384794"></path><path d="M135.5 643.1L316.1 474.9L172.5 461.9Z" fill="#002543" stroke="#002543"></path><path d="M135.5 643.1L177.5 735.4L368.1 596.1Z" fill="#0e376c" stroke="#0e376c"></path><path d="M372.1 923.7L318.1 1080L518.6 1080Z" fill="#002b50" stroke="#002b50"></path><path d="M0 481.9L135.5 643.1L172.5 461.9Z" fill="#021828" stroke="#021828"></path><path d="M1920 314.6L1707.5 272.6L1712.5 448.9Z" fill="#00101c" stroke="#00101c"></path><path d="M1707.5 272.6L1775.5 151.3L1535.9 189.3Z" fill="#03315e" stroke="#03315e"></path><path d="M1775.5 151.3L1715.5 0L1599.9 0Z" fill="#001e35" stroke="#001e35"></path><path d="M1367.4 1080L1538.9 1080L1403.4 962.7Z" fill="#1b3d79" stroke="#1b3d79"></path><path d="M1573.9 915.7L1771.5 792.4L1579.9 740.4Z" fill="#001e35" stroke="#001e35"></path><path d="M365.1 0L183.5 0L350.1 189.3Z" fill="#484ca1" stroke="#484ca1"></path><path d="M1717.5 944.7L1771.5 792.4L1573.9 915.7Z" fill="#002543" stroke="#002543"></path><path d="M1761.5 653.1L1920 476.9L1712.5 448.9Z" fill="#294287" stroke="#294287"></path><path d="M1538.9 1080L1717.5 944.7L1573.9 915.7Z" fill="#294287" stroke="#294287"></path><path d="M206.5 962.7L372.1 923.7L177.5 735.4Z" fill="#384794" stroke="#384794"></path><path d="M206.5 962.7L318.1 1080L372.1 923.7Z" fill="#484ca1" stroke="#484ca1"></path><path d="M0 908.7L206.5 962.7L177.5 735.4Z" fill="#384794" stroke="#384794"></path><path d="M1920 636.1L1761.5 653.1L1920 750.4Z" fill="#002543" stroke="#002543"></path><path d="M1920 636.1L1920 476.9L1761.5 653.1Z" fill="#001e35" stroke="#001e35"></path><path d="M1775.5 151.3L1920 0L1715.5 0Z" fill="#1b3d79" stroke="#1b3d79"></path><path d="M1920 476.9L1920 314.6L1712.5 448.9Z" fill="#0e376c" stroke="#0e376c"></path><path d="M0 321.6L172.5 461.9L194.5 280.6Z" fill="#002543" stroke="#002543"></path><path d="M135.5 643.1L0 733.4L177.5 735.4Z" fill="#484ca1" stroke="#484ca1"></path><path d="M0 321.6L194.5 280.6L163.5 162.3Z" fill="#00101c" stroke="#00101c"></path><path d="M0 156.3L0 321.6L163.5 162.3Z" fill="#1b3d79" stroke="#1b3d79"></path><path d="M1920 750.4L1761.5 653.1L1771.5 792.4Z" fill="#002b50" stroke="#002b50"></path><path d="M0 481.9L0 616.1L135.5 643.1Z" fill="#03315e" stroke="#03315e"></path><path d="M1920 314.6L1920 177.3L1775.5 151.3Z" fill="#03315e" stroke="#03315e"></path><path d="M0 0L0 156.3L163.5 162.3Z" fill="#00101c" stroke="#00101c"></path><path d="M0 616.1L0 733.4L135.5 643.1Z" fill="#03315e" stroke="#03315e"></path><path d="M1920 895.7L1920 750.4L1771.5 792.4Z" fill="#001e35" stroke="#001e35"></path><path d="M0 908.7L173.5 1080L206.5 962.7Z" fill="#294287" stroke="#294287"></path><path d="M206.5 962.7L173.5 1080L318.1 1080Z" fill="#03315e" stroke="#03315e"></path><path d="M1920 177.3L1920 0L1775.5 151.3Z" fill="#484ca1" stroke="#484ca1"></path><path d="M1538.9 1080L1780.5 1080L1717.5 944.7Z" fill="#021828" stroke="#021828"></path><path d="M1717.5 944.7L1920 895.7L1771.5 792.4Z" fill="#002b50" stroke="#002b50"></path><path d="M183.5 0L0 0L163.5 162.3Z" fill="#1b3d79" stroke="#1b3d79"></path><path d="M1780.5 1080L1920 895.7L1717.5 944.7Z" fill="#002543" stroke="#002543"></path><path d="M0 733.4L0 908.7L177.5 735.4Z" fill="#0e376c" stroke="#0e376c"></path><path d="M1780.5 1080L1920 1080L1920 895.7Z" fill="#001e35" stroke="#001e35"></path><path d="M0 908.7L0 1080L173.5 1080Z" fill="#03315e" stroke="#03315e"></path></g></svg>