<svg id="visual" viewBox="0 0 1920 1080" width="1920" height="1080" xmlns="http://www.w3.org/2000/svg" xmlns:xlink="http://www.w3.org/1999/xlink" version="1.1"><g stroke-width="1" stroke-linejoin="bevel"><path d="M833.3 522L1092.7 554L871.3 389Z" fill="#5d2f2e" stroke="#5d2f2e"></path><path d="M1092.7 554L1052.7 321L871.3 389Z" fill="#66312f" stroke="#66312f"></path><path d="M860.3 720L1046.7 724L1092.7 554Z" fill="#232121" stroke="#232121"></path><path d="M833.3 522L860.3 720L1092.7 554Z" fill="#2d2424" stroke="#2d2424"></path><path d="M1292 691L1240 551L1092.7 554Z" fill="#703431" stroke="#703431"></path><path d="M1092.7 554L1240 551L1052.7 321Z" fill="#492b2a" stroke="#492b2a"></path><path d="M1298 334L1088.7 175L1052.7 321Z" fill="#532d2c" stroke="#532d2c"></path><path d="M1052.7 321L854.3 167L871.3 389Z" fill="#66312f" stroke="#66312f"></path><path d="M602 323L639 572L833.3 522Z" fill="#703431" stroke="#703431"></path><path d="M833.3 522L639 572L860.3 720Z" fill="#703431" stroke="#703431"></path><path d="M602 323L833.3 522L871.3 389Z" fill="#793632" stroke="#793632"></path><path d="M1088.7 175L854.3 167L1052.7 321Z" fill="#2d2424" stroke="#2d2424"></path><path d="M1240 551L1298 334L1052.7 321Z" fill="#66312f" stroke="#66312f"></path><path d="M1046.7 724L1292 691L1092.7 554Z" fill="#793632" stroke="#793632"></path><path d="M1240 551L1475.3 559L1298 334Z" fill="#362626" stroke="#362626"></path><path d="M639 572L648 711L860.3 720Z" fill="#2d2424" stroke="#2d2424"></path><path d="M854.3 167L602 323L871.3 389Z" fill="#232121" stroke="#232121"></path><path d="M639 572L417.7 726L648 711Z" fill="#66312f" stroke="#66312f"></path><path d="M648 711L874.3 894L860.3 720Z" fill="#5d2f2e" stroke="#5d2f2e"></path><path d="M860.3 720L874.3 894L1046.7 724Z" fill="#703431" stroke="#703431"></path><path d="M1046.7 724L1271 888L1292 691Z" fill="#232121" stroke="#232121"></path><path d="M874.3 894L1048.7 913L1046.7 724Z" fill="#402828" stroke="#402828"></path><path d="M1298 334L1272 177L1088.7 175Z" fill="#532d2c" stroke="#532d2c"></path><path d="M1088.7 175L1072.7 0L854.3 167Z" fill="#492b2a" stroke="#492b2a"></path><path d="M836.3 0L604 154L854.3 167Z" fill="#532d2c" stroke="#532d2c"></path><path d="M854.3 167L604 154L602 323Z" fill="#703431" stroke="#703431"></path><path d="M1282 0L1072.7 0L1088.7 175Z" fill="#5d2f2e" stroke="#5d2f2e"></path><path d="M1048.7 913L1271 888L1046.7 724Z" fill="#66312f" stroke="#66312f"></path><path d="M1072.7 0L836.3 0L854.3 167Z" fill="#5d2f2e" stroke="#5d2f2e"></path><path d="M1465.3 718L1475.3 559L1292 691Z" fill="#66312f" stroke="#66312f"></path><path d="M1292 691L1475.3 559L1240 551Z" fill="#793632" stroke="#793632"></path><path d="M1298 334L1484.3 204L1272 177Z" fill="#833833" stroke="#833833"></path><path d="M420.7 164L462.7 396L602 323Z" fill="#833833" stroke="#833833"></path><path d="M602 323L462.7 396L639 572Z" fill="#66312f" stroke="#66312f"></path><path d="M1475.3 559L1472.3 343L1298 334Z" fill="#66312f" stroke="#66312f"></path><path d="M1272 177L1282 0L1088.7 175Z" fill="#492b2a" stroke="#492b2a"></path><path d="M648 711L639 914L874.3 894Z" fill="#532d2c" stroke="#532d2c"></path><path d="M874.3 894L888.3 1080L1048.7 913Z" fill="#793632" stroke="#793632"></path><path d="M464.7 863L639 914L648 711Z" fill="#362626" stroke="#362626"></path><path d="M1271 888L1465.3 718L1292 691Z" fill="#532d2c" stroke="#532d2c"></path><path d="M462.7 396L420.7 526L639 572Z" fill="#402828" stroke="#402828"></path><path d="M1459.3 0L1282 0L1272 177Z" fill="#532d2c" stroke="#532d2c"></path><path d="M1722.7 328L1484.3 204L1472.3 343Z" fill="#833833" stroke="#833833"></path><path d="M1472.3 343L1484.3 204L1298 334Z" fill="#362626" stroke="#362626"></path><path d="M639 914L888.3 1080L874.3 894Z" fill="#793632" stroke="#793632"></path><path d="M1048.7 913L1074.7 1080L1271 888Z" fill="#362626" stroke="#362626"></path><path d="M420.7 526L417.7 726L639 572Z" fill="#833833" stroke="#833833"></path><path d="M888.3 1080L1074.7 1080L1048.7 913Z" fill="#402828" stroke="#402828"></path><path d="M1271 888L1493.3 900L1465.3 718Z" fill="#833833" stroke="#833833"></path><path d="M836.3 0L619 0L604 154Z" fill="#66312f" stroke="#66312f"></path><path d="M604 154L420.7 164L602 323Z" fill="#703431" stroke="#703431"></path><path d="M417.7 726L464.7 863L648 711Z" fill="#66312f" stroke="#66312f"></path><path d="M639 914L608 1080L888.3 1080Z" fill="#402828" stroke="#402828"></path><path d="M445.7 0L420.7 164L604 154Z" fill="#703431" stroke="#703431"></path><path d="M192.3 327L229.3 555L420.7 526Z" fill="#232121" stroke="#232121"></path><path d="M420.7 526L229.3 555L417.7 726Z" fill="#703431" stroke="#703431"></path><path d="M1297 1080L1493.3 900L1271 888Z" fill="#703431" stroke="#703431"></path><path d="M1465.3 718L1680.7 556L1475.3 559Z" fill="#5d2f2e" stroke="#5d2f2e"></path><path d="M1475.3 559L1680.7 556L1472.3 343Z" fill="#492b2a" stroke="#492b2a"></path><path d="M1074.7 1080L1297 1080L1271 888Z" fill="#532d2c" stroke="#532d2c"></path><path d="M1484.3 204L1459.3 0L1272 177Z" fill="#492b2a" stroke="#492b2a"></path><path d="M464.7 863L608 1080L639 914Z" fill="#232121" stroke="#232121"></path><path d="M1733.7 743L1680.7 556L1465.3 718Z" fill="#5d2f2e" stroke="#5d2f2e"></path><path d="M1484.3 204L1673.7 0L1459.3 0Z" fill="#2d2424" stroke="#2d2424"></path><path d="M619 0L445.7 0L604 154Z" fill="#703431" stroke="#703431"></path><path d="M226.3 886L423.7 1080L464.7 863Z" fill="#532d2c" stroke="#532d2c"></path><path d="M464.7 863L423.7 1080L608 1080Z" fill="#362626" stroke="#362626"></path><path d="M192.3 327L420.7 526L462.7 396Z" fill="#793632" stroke="#793632"></path><path d="M192.3 327L462.7 396L420.7 164Z" fill="#793632" stroke="#793632"></path><path d="M1680.7 556L1722.7 328L1472.3 343Z" fill="#703431" stroke="#703431"></path><path d="M1297 1080L1491.3 1080L1493.3 900Z" fill="#232121" stroke="#232121"></path><path d="M1693.7 881L1733.7 743L1465.3 718Z" fill="#833833" stroke="#833833"></path><path d="M1722.7 328L1702.7 189L1484.3 204Z" fill="#362626" stroke="#362626"></path><path d="M203.3 168L192.3 327L420.7 164Z" fill="#2d2424" stroke="#2d2424"></path><path d="M226.3 886L464.7 863L417.7 726Z" fill="#793632" stroke="#793632"></path><path d="M1693.7 881L1465.3 718L1493.3 900Z" fill="#232121" stroke="#232121"></path><path d="M1680.7 556L1920 382L1722.7 328Z" fill="#793632" stroke="#793632"></path><path d="M0 710L203.3 756L229.3 555Z" fill="#793632" stroke="#793632"></path><path d="M229.3 555L203.3 756L417.7 726Z" fill="#833833" stroke="#833833"></path><path d="M1683.7 1080L1693.7 881L1493.3 900Z" fill="#232121" stroke="#232121"></path><path d="M236.3 0L203.3 168L420.7 164Z" fill="#66312f" stroke="#66312f"></path><path d="M203.3 756L226.3 886L417.7 726Z" fill="#66312f" stroke="#66312f"></path><path d="M1702.7 189L1673.7 0L1484.3 204Z" fill="#66312f" stroke="#66312f"></path><path d="M445.7 0L236.3 0L420.7 164Z" fill="#492b2a" stroke="#492b2a"></path><path d="M1491.3 1080L1683.7 1080L1493.3 900Z" fill="#833833" stroke="#833833"></path><path d="M1920 712L1920 567L1733.7 743Z" fill="#833833" stroke="#833833"></path><path d="M0 1080L222.3 1080L226.3 886Z" fill="#492b2a" stroke="#492b2a"></path><path d="M226.3 886L222.3 1080L423.7 1080Z" fill="#66312f" stroke="#66312f"></path><path d="M1733.7 743L1920 567L1680.7 556Z" fill="#492b2a" stroke="#492b2a"></path><path d="M1722.7 328L1920 151L1702.7 189Z" fill="#232121" stroke="#232121"></path><path d="M1702.7 189L1920 151L1673.7 0Z" fill="#66312f" stroke="#66312f"></path><path d="M1920 712L1733.7 743L1920 880Z" fill="#532d2c" stroke="#532d2c"></path><path d="M1920 567L1920 382L1680.7 556Z" fill="#402828" stroke="#402828"></path><path d="M0 381L0 536L229.3 555Z" fill="#703431" stroke="#703431"></path><path d="M203.3 756L0 875L226.3 886Z" fill="#532d2c" stroke="#532d2c"></path><path d="M0 381L229.3 555L192.3 327Z" fill="#833833" stroke="#833833"></path><path d="M0 381L192.3 327L0 169Z" fill="#2d2424" stroke="#2d2424"></path><path d="M0 169L192.3 327L203.3 168Z" fill="#532d2c" stroke="#532d2c"></path><path d="M1920 880L1733.7 743L1693.7 881Z" fill="#703431" stroke="#703431"></path><path d="M0 536L0 710L229.3 555Z" fill="#703431" stroke="#703431"></path><path d="M1920 382L1920 151L1722.7 328Z" fill="#703431" stroke="#703431"></path><path d="M0 0L0 169L203.3 168Z" fill="#2d2424" stroke="#2d2424"></path><path d="M1920 1080L1920 880L1693.7 881Z" fill="#492b2a" stroke="#492b2a"></path><path d="M0 710L0 875L203.3 756Z" fill="#362626" stroke="#362626"></path><path d="M1920 151L1920 0L1673.7 0Z" fill="#793632" stroke="#793632"></path><path d="M236.3 0L0 0L203.3 168Z" fill="#492b2a" stroke="#492b2a"></path><path d="M1683.7 1080L1920 1080L1693.7 881Z" fill="#5d2f2e" stroke="#5d2f2e"></path><path d="M0 875L0 1080L226.3 886Z" fill="#532d2c" stroke="#532d2c"></path></g></svg>