<svg id="visual" viewBox="0 0 900 600" width="900" height="600" xmlns="http://www.w3.org/2000/svg" xmlns:xlink="http://www.w3.org/1999/xlink" version="1.1"><g stroke-width="1" stroke-linejoin="bevel"><path d="M468 275.1L453 355.1L490 304.1Z" fill="#492b2a" stroke="#492b2a"></path><path d="M382 342.6L398 356.9L453 355.1Z" fill="#2d2424" stroke="#2d2424"></path><path d="M468 275.1L382 342.6L453 355.1Z" fill="#232121" stroke="#232121"></path><path d="M382 342.6L385 355.9L398 356.9Z" fill="#492b2a" stroke="#492b2a"></path><path d="M453 355.1L534 332.6L490 304.1Z" fill="#402828" stroke="#402828"></path><path d="M530 221.1L462 215.4L468 275.1Z" fill="#5d2f2e" stroke="#5d2f2e"></path><path d="M530 221.1L468 275.1L490 304.1Z" fill="#793632" stroke="#793632"></path><path d="M468 275.1L360 208.1L382 342.6Z" fill="#66312f" stroke="#66312f"></path><path d="M534 332.6L530 221.1L490 304.1Z" fill="#232121" stroke="#232121"></path><path d="M462 215.4L360 208.1L468 275.1Z" fill="#5d2f2e" stroke="#5d2f2e"></path><path d="M472 66.7L422 171.7L462 215.4Z" fill="#402828" stroke="#402828"></path><path d="M462 215.4L422 171.7L360 208.1Z" fill="#2d2424" stroke="#2d2424"></path><path d="M446 496.3L530 433.6L453 355.1Z" fill="#5d2f2e" stroke="#5d2f2e"></path><path d="M453 355.1L530 433.6L534 332.6Z" fill="#703431" stroke="#703431"></path><path d="M446 496.3L453 355.1L398 356.9Z" fill="#362626" stroke="#362626"></path><path d="M385 355.9L446 496.3L398 356.9Z" fill="#2d2424" stroke="#2d2424"></path><path d="M530 433.6L624 373.9L534 332.6Z" fill="#2d2424" stroke="#2d2424"></path><path d="M534 332.6L671 339.6L530 221.1Z" fill="#833833" stroke="#833833"></path><path d="M631 431.9L624 373.9L530 433.6Z" fill="#532d2c" stroke="#532d2c"></path><path d="M360 208.1L257 336.9L382 342.6Z" fill="#703431" stroke="#703431"></path><path d="M382 342.6L257 336.9L385 355.9Z" fill="#2d2424" stroke="#2d2424"></path><path d="M385 355.9L304 499.3L446 496.3Z" fill="#703431" stroke="#703431"></path><path d="M446 496.3L539 505.3L530 433.6Z" fill="#232121" stroke="#232121"></path><path d="M539 505.3L601 466.6L530 433.6Z" fill="#66312f" stroke="#66312f"></path><path d="M601 466.6L631 431.9L530 433.6Z" fill="#703431" stroke="#703431"></path><path d="M422 171.7L302 144.7L360 208.1Z" fill="#232121" stroke="#232121"></path><path d="M360 208.1L183 229.4L257 336.9Z" fill="#232121" stroke="#232121"></path><path d="M704 412.9L671 339.6L624 373.9Z" fill="#5d2f2e" stroke="#5d2f2e"></path><path d="M624 373.9L671 339.6L534 332.6Z" fill="#362626" stroke="#362626"></path><path d="M749 244.4L583 124.4L530 221.1Z" fill="#5d2f2e" stroke="#5d2f2e"></path><path d="M530 221.1L472 66.7L462 215.4Z" fill="#703431" stroke="#703431"></path><path d="M422 171.7L346 0L302 144.7Z" fill="#232121" stroke="#232121"></path><path d="M257 336.9L304 499.3L385 355.9Z" fill="#66312f" stroke="#66312f"></path><path d="M446 496.3L473 600L539 505.3Z" fill="#492b2a" stroke="#492b2a"></path><path d="M583 124.4L472 66.7L530 221.1Z" fill="#5d2f2e" stroke="#5d2f2e"></path><path d="M346 0L278 121.4L302 144.7Z" fill="#5d2f2e" stroke="#5d2f2e"></path><path d="M194 194.4L183 229.4L360 208.1Z" fill="#793632" stroke="#793632"></path><path d="M265 498.6L276 506.3L304 499.3Z" fill="#492b2a" stroke="#492b2a"></path><path d="M376 600.3L473 600L446 496.3Z" fill="#532d2c" stroke="#532d2c"></path><path d="M257 336.9L265 498.6L304 499.3Z" fill="#793632" stroke="#793632"></path><path d="M158 274.1L199 393.9L257 336.9Z" fill="#2d2424" stroke="#2d2424"></path><path d="M257 336.9L199 393.9L265 498.6Z" fill="#833833" stroke="#833833"></path><path d="M184 467.3L255 505.6L265 498.6Z" fill="#362626" stroke="#362626"></path><path d="M265 498.6L255 505.6L276 506.3Z" fill="#703431" stroke="#703431"></path><path d="M631 431.9L704 412.9L624 373.9Z" fill="#232121" stroke="#232121"></path><path d="M749 244.4L627 104.4L583 124.4Z" fill="#402828" stroke="#402828"></path><path d="M707 425.3L704 412.9L631 431.9Z" fill="#793632" stroke="#793632"></path><path d="M707 425.3L631 431.9L652 513.3Z" fill="#492b2a" stroke="#492b2a"></path><path d="M749 244.4L530 221.1L671 339.6Z" fill="#793632" stroke="#793632"></path><path d="M583 124.4L605 0L472 66.7Z" fill="#492b2a" stroke="#492b2a"></path><path d="M194 194.4L360 208.1L302 144.7Z" fill="#66312f" stroke="#66312f"></path><path d="M278 121.4L194 194.4L302 144.7Z" fill="#532d2c" stroke="#532d2c"></path><path d="M652 513.3L631 431.9L601 466.6Z" fill="#833833" stroke="#833833"></path><path d="M621 600L652 513.3L539 505.3Z" fill="#66312f" stroke="#66312f"></path><path d="M539 505.3L652 513.3L601 466.6Z" fill="#402828" stroke="#402828"></path><path d="M707 425.3L728 381.9L704 412.9Z" fill="#5d2f2e" stroke="#5d2f2e"></path><path d="M704 412.9L728 381.9L671 339.6Z" fill="#66312f" stroke="#66312f"></path><path d="M376 600.3L304 499.3L367 600Z" fill="#362626" stroke="#362626"></path><path d="M376 600.3L446 496.3L304 499.3Z" fill="#232121" stroke="#232121"></path><path d="M0 275.1L158 274.1L0 255.4Z" fill="#2d2424" stroke="#2d2424"></path><path d="M183 229.4L158 274.1L257 336.9Z" fill="#66312f" stroke="#66312f"></path><path d="M367 600L304 499.3L325 600Z" fill="#2d2424" stroke="#2d2424"></path><path d="M0 381.6L178 436.9L199 393.9Z" fill="#703431" stroke="#703431"></path><path d="M199 393.9L184 467.3L265 498.6Z" fill="#2d2424" stroke="#2d2424"></path><path d="M325 600L304 499.3L276 506.3Z" fill="#833833" stroke="#833833"></path><path d="M178 436.9L184 467.3L199 393.9Z" fill="#232121" stroke="#232121"></path><path d="M255 505.6L325 600L276 506.3Z" fill="#5d2f2e" stroke="#5d2f2e"></path><path d="M728 381.9L749 244.4L671 339.6Z" fill="#66312f" stroke="#66312f"></path><path d="M346 0L232 88.7L278 121.4Z" fill="#362626" stroke="#362626"></path><path d="M278 121.4L232 88.7L194 194.4Z" fill="#362626" stroke="#362626"></path><path d="M194 194.4L0 184.7L183 229.4Z" fill="#833833" stroke="#833833"></path><path d="M173 600L325 600L255 505.6Z" fill="#2d2424" stroke="#2d2424"></path><path d="M367 600L325 600L376 600.3Z" fill="#532d2c" stroke="#532d2c"></path><path d="M605 0L429 0L472 66.7Z" fill="#833833" stroke="#833833"></path><path d="M472 66.7L346 0L422 171.7Z" fill="#703431" stroke="#703431"></path><path d="M429 0L346 0L472 66.7Z" fill="#5d2f2e" stroke="#5d2f2e"></path><path d="M473 600L621 600L539 505.3Z" fill="#492b2a" stroke="#492b2a"></path><path d="M652 513.3L802 522.6L707 425.3Z" fill="#402828" stroke="#402828"></path><path d="M376 600.3L621 600L473 600Z" fill="#66312f" stroke="#66312f"></path><path d="M746 0L647 30.7L627 104.4Z" fill="#492b2a" stroke="#492b2a"></path><path d="M627 104.4L605 0L583 124.4Z" fill="#5d2f2e" stroke="#5d2f2e"></path><path d="M647 30.7L605 0L627 104.4Z" fill="#402828" stroke="#402828"></path><path d="M651 0L643 18.7L647 30.7Z" fill="#402828" stroke="#402828"></path><path d="M647 30.7L643 18.7L605 0Z" fill="#492b2a" stroke="#492b2a"></path><path d="M728 381.9L805 255.1L749 244.4Z" fill="#66312f" stroke="#66312f"></path><path d="M749 244.4L795 160.4L627 104.4Z" fill="#66312f" stroke="#66312f"></path><path d="M900 303.9L805 255.1L907 354.1Z" fill="#833833" stroke="#833833"></path><path d="M859 487.3L728 381.9L707 425.3Z" fill="#492b2a" stroke="#492b2a"></path><path d="M746 0L651 0L647 30.7Z" fill="#402828" stroke="#402828"></path><path d="M643 18.7L651 0L605 0Z" fill="#5d2f2e" stroke="#5d2f2e"></path><path d="M376 600.3L687 600L621 600Z" fill="#402828" stroke="#402828"></path><path d="M621 600L687 600L652 513.3Z" fill="#362626" stroke="#362626"></path><path d="M176 0L146 93.4L232 88.7Z" fill="#532d2c" stroke="#532d2c"></path><path d="M232 88.7L146 93.4L194 194.4Z" fill="#703431" stroke="#703431"></path><path d="M805 255.1L795 160.4L749 244.4Z" fill="#402828" stroke="#402828"></path><path d="M429 0L222 -4.3L346 0Z" fill="#532d2c" stroke="#532d2c"></path><path d="M346 0L222 -4.3L232 88.7Z" fill="#492b2a" stroke="#492b2a"></path><path d="M605 0L222 -4.3L429 0Z" fill="#532d2c" stroke="#532d2c"></path><path d="M651 0L222 -4.3L605 0Z" fill="#492b2a" stroke="#492b2a"></path><path d="M325 600L173 600L376 600.3Z" fill="#402828" stroke="#402828"></path><path d="M184 467.3L173 600L255 505.6Z" fill="#492b2a" stroke="#492b2a"></path><path d="M110 600L173 600L184 467.3Z" fill="#833833" stroke="#833833"></path><path d="M110 600L184 467.3L0 455.3Z" fill="#703431" stroke="#703431"></path><path d="M184 467.3L178 436.9L0 455.3Z" fill="#703431" stroke="#703431"></path><path d="M376 600.3L727 600L687 600Z" fill="#793632" stroke="#793632"></path><path d="M687 600L727 600L652 513.3Z" fill="#833833" stroke="#833833"></path><path d="M727 600L802 522.6L652 513.3Z" fill="#362626" stroke="#362626"></path><path d="M222 -4.3L176 0L232 88.7Z" fill="#793632" stroke="#793632"></path><path d="M900 174.1L795 160.4L805 255.1Z" fill="#362626" stroke="#362626"></path><path d="M900 174.1L839 135.7L795 160.4Z" fill="#793632" stroke="#793632"></path><path d="M795 160.4L746 0L627 104.4Z" fill="#402828" stroke="#402828"></path><path d="M790 0L746 0L795 160.4Z" fill="#232121" stroke="#232121"></path><path d="M651 0L746 0L222 -4.3Z" fill="#793632" stroke="#793632"></path><path d="M173 600L110 600L376 600.3Z" fill="#402828" stroke="#402828"></path><path d="M0 381.6L199 393.9L158 274.1Z" fill="#492b2a" stroke="#492b2a"></path><path d="M900 470.3L859 487.3L900 600Z" fill="#2d2424" stroke="#2d2424"></path><path d="M802 522.6L859 487.3L707 425.3Z" fill="#232121" stroke="#232121"></path><path d="M92 0L71 74.7L146 93.4Z" fill="#5d2f2e" stroke="#5d2f2e"></path><path d="M146 93.4L0 184.7L194 194.4Z" fill="#532d2c" stroke="#532d2c"></path><path d="M0 255.4L158 274.1L0 184.7Z" fill="#703431" stroke="#703431"></path><path d="M907 354.1L805 255.1L728 381.9Z" fill="#833833" stroke="#833833"></path><path d="M0 184.7L158 274.1L183 229.4Z" fill="#532d2c" stroke="#532d2c"></path><path d="M0 255.4L-4 302.1L0 275.1Z" fill="#703431" stroke="#703431"></path><path d="M0 275.1L-4 302.1L158 274.1Z" fill="#833833" stroke="#833833"></path><path d="M-6 336.6L0 381.6L158 274.1Z" fill="#492b2a" stroke="#492b2a"></path><path d="M-4 302.1L-6 336.6L158 274.1Z" fill="#362626" stroke="#362626"></path><path d="M-6 336.6L0 409.9L0 381.6Z" fill="#833833" stroke="#833833"></path><path d="M0 381.6L0 409.9L178 436.9Z" fill="#532d2c" stroke="#532d2c"></path><path d="M900 445.6L907 354.1L728 381.9Z" fill="#402828" stroke="#402828"></path><path d="M839 135.7L790 0L795 160.4Z" fill="#66312f" stroke="#66312f"></path><path d="M746 0L790 0L222 -4.3Z" fill="#402828" stroke="#402828"></path><path d="M900 71.4L790 0L839 135.7Z" fill="#793632" stroke="#793632"></path><path d="M0 255.4L0 184.7L-4 302.1Z" fill="#66312f" stroke="#66312f"></path><path d="M-4 302.1L0 184.7L-6 336.6Z" fill="#232121" stroke="#232121"></path><path d="M71 74.7L0 184.7L146 93.4Z" fill="#362626" stroke="#362626"></path><path d="M-6 336.6L0 455.3L0 409.9Z" fill="#492b2a" stroke="#492b2a"></path><path d="M0 409.9L0 455.3L178 436.9Z" fill="#532d2c" stroke="#532d2c"></path><path d="M859 487.3L900 445.6L728 381.9Z" fill="#5d2f2e" stroke="#5d2f2e"></path><path d="M907 354.1L900 174.1L900 303.9Z" fill="#5d2f2e" stroke="#5d2f2e"></path><path d="M900 303.9L900 174.1L805 255.1Z" fill="#66312f" stroke="#66312f"></path><path d="M222 -4.3L92 0L176 0Z" fill="#532d2c" stroke="#532d2c"></path><path d="M176 0L92 0L146 93.4Z" fill="#232121" stroke="#232121"></path><path d="M71 74.7L0 0L0 184.7Z" fill="#532d2c" stroke="#532d2c"></path><path d="M900 445.6L900 470.3L907 354.1Z" fill="#5d2f2e" stroke="#5d2f2e"></path><path d="M859 487.3L900 470.3L900 445.6Z" fill="#703431" stroke="#703431"></path><path d="M898 600L859 487.3L802 522.6Z" fill="#703431" stroke="#703431"></path><path d="M907 354.1L900 74.7L900 174.1Z" fill="#833833" stroke="#833833"></path><path d="M900 174.1L900 74.7L839 135.7Z" fill="#833833" stroke="#833833"></path><path d="M907 354.1L900 71.4L900 74.7Z" fill="#402828" stroke="#402828"></path><path d="M900 74.7L900 71.4L839 135.7Z" fill="#833833" stroke="#833833"></path><path d="M222 -4.3L27 0L92 0Z" fill="#532d2c" stroke="#532d2c"></path><path d="M92 0L27 0L71 74.7Z" fill="#5d2f2e" stroke="#5d2f2e"></path><path d="M-6 336.6L0 600L0 455.3Z" fill="#2d2424" stroke="#2d2424"></path><path d="M0 455.3L0 600L110 600Z" fill="#66312f" stroke="#66312f"></path><path d="M110 600L0 600L376 600.3Z" fill="#492b2a" stroke="#492b2a"></path><path d="M900 470.3L900 600L907 354.1Z" fill="#532d2c" stroke="#532d2c"></path><path d="M727 600L898 600L802 522.6Z" fill="#2d2424" stroke="#2d2424"></path><path d="M376 600.3L898 600L727 600Z" fill="#532d2c" stroke="#532d2c"></path><path d="M376 600.3L900 600L898 600Z" fill="#2d2424" stroke="#2d2424"></path><path d="M898 600L900 600L859 487.3Z" fill="#833833" stroke="#833833"></path><path d="M222 -4.3L0 0L27 0Z" fill="#532d2c" stroke="#532d2c"></path><path d="M27 0L0 0L71 74.7Z" fill="#793632" stroke="#793632"></path><path d="M0 184.7L0 0L-6 336.6Z" fill="#532d2c" stroke="#532d2c"></path><path d="M900 71.4L900 0L790 0Z" fill="#793632" stroke="#793632"></path><path d="M790 0L900 0L222 -4.3Z" fill="#703431" stroke="#703431"></path><path d="M907 354.1L900 0L900 71.4Z" fill="#833833" stroke="#833833"></path></g></svg>