<svg id="visual" viewBox="0 0 900 600" width="900" height="600" xmlns="http://www.w3.org/2000/svg" xmlns:xlink="http://www.w3.org/1999/xlink" version="1.1"><path d="M0 19L75 37L150 37L225 19L300 19L375 37L450 37L525 25L600 31L675 37L750 19L825 49L900 31L900 0L825 0L750 0L675 0L600 0L525 0L450 0L375 0L300 0L225 0L150 0L75 0L0 0Z" fill="#232121"></path><path d="M0 49L75 61L150 91L225 91L300 55L375 85L450 61L525 73L600 61L675 115L750 103L825 109L900 85L900 29L825 47L750 17L675 35L600 29L525 23L450 35L375 35L300 17L225 17L150 35L75 35L0 17Z" fill="#392727"></path><path d="M0 61L75 97L150 103L225 121L300 67L375 97L450 73L525 85L600 79L675 139L750 139L825 145L900 97L900 83L825 107L750 101L675 113L600 59L525 71L450 59L375 83L300 53L225 89L150 89L75 59L0 47Z" fill="#4f2c2b"></path><path d="M0 109L75 139L150 127L225 151L300 91L375 145L450 91L525 103L600 121L675 163L750 163L825 175L900 145L900 95L825 143L750 137L675 137L600 77L525 83L450 71L375 95L300 65L225 119L150 101L75 95L0 59Z" fill="#64312f"></path><path d="M0 199L75 211L150 205L225 205L300 139L375 235L450 133L525 163L600 157L675 217L750 241L825 217L900 175L900 143L825 173L750 161L675 161L600 119L525 101L450 89L375 143L300 89L225 149L150 125L75 137L0 107Z" fill="#7a3632"></path><path d="M0 259L75 241L150 235L225 271L300 193L375 265L450 181L525 211L600 193L675 271L750 277L825 271L900 229L900 173L825 215L750 239L675 215L600 155L525 161L450 131L375 233L300 137L225 203L150 203L75 209L0 197Z" fill="#833833"></path><path d="M0 397L75 385L150 367L225 397L300 409L375 385L450 331L525 349L600 301L675 355L750 415L825 421L900 313L900 227L825 269L750 275L675 269L600 191L525 209L450 179L375 263L300 191L225 269L150 233L75 239L0 257Z" fill="#833833"></path><path d="M0 433L75 409L150 379L225 421L300 445L375 415L450 367L525 385L600 337L675 385L750 427L825 445L900 343L900 311L825 419L750 413L675 353L600 299L525 347L450 329L375 383L300 407L225 395L150 365L75 383L0 395Z" fill="#7a3632"></path><path d="M0 481L75 433L150 415L225 451L300 475L375 433L450 427L525 445L600 379L675 409L750 487L825 469L900 397L900 341L825 443L750 425L675 383L600 335L525 383L450 365L375 413L300 443L225 419L150 377L75 407L0 431Z" fill="#64312f"></path><path d="M0 511L75 451L150 439L225 481L300 505L375 457L450 457L525 463L600 403L675 439L750 517L825 493L900 427L900 395L825 467L750 485L675 407L600 377L525 443L450 425L375 431L300 473L225 449L150 413L75 431L0 479Z" fill="#4f2c2b"></path><path d="M0 583L75 559L150 589L225 583L300 583L375 565L450 583L525 589L600 565L675 559L750 577L825 589L900 565L900 425L825 491L750 515L675 437L600 401L525 461L450 455L375 455L300 503L225 479L150 437L75 449L0 509Z" fill="#392727"></path><path d="M0 601L75 601L150 601L225 601L300 601L375 601L450 601L525 601L600 601L675 601L750 601L825 601L900 601L900 563L825 587L750 575L675 557L600 563L525 587L450 581L375 563L300 581L225 581L150 587L75 557L0 581Z" fill="#232121"></path></svg>