<svg id="visual" viewBox="0 0 1920 1080" width="1920" height="1080" xmlns="http://www.w3.org/2000/svg" xmlns:xlink="http://www.w3.org/1999/xlink" version="1.1"><rect x="0" y="0" width="1920" height="1080" fill="#000000"></rect><g fill="none" stroke="#ec0836" stroke-width="5"><path d="M45.6 26.3L45.6 117.5L-45.6 117.5L-45.6 26.3L-124.6 -19.3L-79 -98.3L0 -52.7L79 -98.3L124.6 -19.3Z" transform="translate(435 1068)"></path><path d="M17.3 10L17.3 44.5L-17.3 44.5L-17.3 10L-47.2 -7.3L-29.9 -37.2L0 -19.9L29.9 -37.2L47.2 -7.3Z" transform="translate(469 622)"></path><path d="M40.7 23.5L40.7 105L-40.7 105L-40.7 23.5L-111.3 -17.2L-70.6 -87.8L0 -47.1L70.6 -87.8L111.3 -17.2Z" transform="translate(801 495)"></path><path d="M21 12.2L21 54.3L-21 54.3L-21 12.2L-57.5 -8.9L-36.5 -45.4L0 -24.3L36.5 -45.4L57.5 -8.9Z" transform="translate(1400 976)"></path><path d="M31 17.9L31 80L-31 80L-31 17.9L-84.8 -13.1L-53.8 -66.9L0 -35.8L53.8 -66.9L84.8 -13.1Z" transform="translate(1454 540)"></path><path d="M17 9.8L17 43.8L-17 43.8L-17 9.8L-46.4 -7.2L-29.4 -36.6L0 -19.6L29.4 -36.6L46.4 -7.2Z" transform="translate(48 533)"></path><path d="M41 23.7L41 105.7L-41 105.7L-41 23.7L-112.1 -17.3L-71 -88.4L0 -47.4L71 -88.4L112.1 -17.3Z" transform="translate(1113 703)"></path><path d="M38.3 22.1L38.3 98.8L-38.3 98.8L-38.3 22.1L-104.7 -16.2L-66.4 -82.6L0 -44.2L66.4 -82.6L104.7 -16.2Z" transform="translate(660 16)"></path><path d="M29.7 17.1L29.7 76.5L-29.7 76.5L-29.7 17.1L-81.1 -12.5L-51.4 -64L0 -34.3L51.4 -64L81.1 -12.5Z" transform="translate(1743 79)"></path><path d="M17.8 10.3L17.8 45.9L-17.8 45.9L-17.8 10.3L-48.7 -7.5L-30.8 -38.4L0 -20.6L30.8 -38.4L48.7 -7.5Z" transform="translate(1859 824)"></path><path d="M23.7 13.7L23.7 61.2L-23.7 61.2L-23.7 13.7L-64.9 -10L-41.1 -51.2L0 -27.4L41.1 -51.2L64.9 -10Z" transform="translate(793 1050)"></path><path d="M37.2 21.5L37.2 96L-37.2 96L-37.2 21.5L-101.7 -15.7L-64.5 -80.2L0 -43L64.5 -80.2L101.7 -15.7Z" transform="translate(1297 164)"></path><path d="M18.6 10.8L18.6 48L-18.6 48L-18.6 10.8L-50.9 -7.9L-32.3 -40.1L0 -21.5L32.3 -40.1L50.9 -7.9Z" transform="translate(244 48)"></path><path d="M40.7 23.5L40.7 105L-40.7 105L-40.7 23.5L-111.3 -17.2L-70.6 -87.8L0 -47.1L70.6 -87.8L111.3 -17.2Z" transform="translate(1878 454)"></path><path d="M22.1 12.8L22.1 57L-22.1 57L-22.1 12.8L-60.5 -9.4L-38.3 -47.7L0 -25.6L38.3 -47.7L60.5 -9.4Z" transform="translate(41 908)"></path></g></svg>